<?xml version="1.0" encoding="UTF-8" standalone="no"?>
<svg width="2405px" height="426px" viewBox="0 0 2405 426" version="1.1" xmlns="http://www.w3.org/2000/svg" xmlns:xlink="http://www.w3.org/1999/xlink">
    <!-- Generator: Sketch 3.8.3 (29802) - http://www.bohemiancoding.com/sketch -->
    <title>mostPeople</title>
    <desc>Created with Sketch.</desc>
    <defs></defs>
    <g id="Page-1" stroke="none" stroke-width="1" fill="none" fill-rule="evenodd">
        <path d="M364,334 L364,159.5 C364,110 337.5,86.5 293,86.5 C256,86.5 224,108.5 210,130 C201.5,103 178.5,86.5 143,86.5 C106,86.5 74.5,109.5 64,123.5 L64,92.5 L0.5,92.5 L0.5,334 L64,334 L64,171 C73.5,158 92,143 114,143 C140,143 150,159 150,181.5 L150,334 L214,334 L214,171 C223,158 241.5,143 264,143 C290,143 300,159 300,181.5 L300,334 L364,334 Z M521,340 C601,340 649,281.5 649,213 C649,144.5 601,86.5 521,86.5 C441.5,86.5 393.5,144.5 393.5,213 C393.5,281.5 441.5,340 521,340 L521,340 Z M521,283.5 C481.5,283.5 459.5,251 459.5,213 C459.5,175.5 481.5,143 521,143 C561,143 583,175.5 583,213 C583,251 561,283.5 521,283.5 L521,283.5 Z M765.5,340 C832.5,340 870.5,307.5 870.5,263 C870.5,165.5 727,195.5 727,160 C727,146.5 742,136.5 765,136.5 C794.5,136.5 822,149.5 836.5,164.5 L862,119.5 C838,100.5 805.5,86.5 765,86.5 C701,86.5 666,122 666,162.5 C666,257.5 809,225 809,264.5 C809,279.5 796,290 768.5,290 C738.5,290 703,273.5 685,256.5 L657.5,302.5 C683,326 723.5,340 765.5,340 L765.5,340 Z M980,340 C1006.5,340 1023.5,333 1033,324.5 L1019.5,276 C1016,280 1007,283.5 997.5,283.5 C983.5,283.5 975.5,272 975.5,256.5 L975.5,148 L1024.5,148 L1024.5,92.5 L975.5,92.5 L975.5,26.5 L912,26.5 L912,92.5 L872,92.5 L872,148 L912,148 L912,273.5 C912,317 935.5,340 980,340 L980,340 Z M1099,334 L1099,201.5 L1191.5,201.5 C1258,201.5 1296,155.5 1296,101 C1296,46.5 1258.5,0.5 1191.5,0.5 L1057.5,0.5 L1057.5,334 L1099,334 Z M1186.5,164.5 L1099,164.5 L1099,37.5 L1186.5,37.5 C1226,37.5 1253,63.5 1253,101 C1253,138.5 1226,164.5 1186.5,164.5 L1186.5,164.5 Z M1427.5,340 C1466.5,340 1499,326.5 1523.5,302.5 L1505.5,278 C1486,298 1458.5,309 1430.5,309 C1378.5,309 1347,271 1344,225.5 L1539,225.5 L1539,216 C1539,143.5 1496,86.5 1423,86.5 C1354,86.5 1304,143 1304,213 C1304,288.5 1355.5,340 1427.5,340 L1427.5,340 Z M1502,197.5 L1343.5,197.5 C1345.5,161 1371,117.5 1422.5,117.5 C1477.5,117.5 1501.5,162 1502,197.5 L1502,197.5 Z M1680,340 C1753.5,340 1799.5,283 1799.5,213 C1799.5,143 1753.5,86.5 1680,86.5 C1606.5,86.5 1560.5,143 1560.5,213 C1560.5,283 1606.5,340 1680,340 L1680,340 Z M1680,306.5 C1628.5,306.5 1600,262.5 1600,213 C1600,164 1628.5,120 1680,120 C1731.5,120 1760,164 1760,213 C1760,262.5 1731.5,306.5 1680,306.5 L1680,306.5 Z M1954.5,340 C2018,340 2062,291 2062,213 C2062,134.5 2018,86.5 1954.5,86.5 C1920.5,86.5 1890.5,104 1873,128.5 L1873,92.5 L1835.5,92.5 L1835.5,426 L1873,426 L1873,297.5 C1893,324 1921.5,340 1954.5,340 L1954.5,340 Z M1945,306.5 C1915.5,306.5 1886,288.5 1873,267.5 L1873,158.5 C1886,137.5 1915.5,120 1945,120 C1993.5,120 2022.5,159.5 2022.5,213 C2022.5,266.5 1993.5,306.5 1945,306.5 L1945,306.5 Z M2134,334 L2134,0.5 L2096.5,0.5 L2096.5,334 L2134,334 Z M2293.5,340 C2332.5,340 2365,326.5 2389.5,302.5 L2371.5,278 C2352,298 2324.5,309 2296.5,309 C2244.5,309 2213,271 2210,225.5 L2405,225.5 L2405,216 C2405,143.5 2362,86.5 2289,86.5 C2220,86.5 2170,143 2170,213 C2170,288.5 2221.5,340 2293.5,340 L2293.5,340 Z M2368,197.5 L2209.5,197.5 C2211.5,161 2237,117.5 2288.5,117.5 C2343.5,117.5 2367.5,162 2368,197.5 L2368,197.5 Z" id="mostPeople" fill="#181818"></path>
    </g>
</svg>